<svg width="0" height="0" class="hidden">

  <symbol fill="none" xmlns="http://www.w3.org/2000/svg" viewBox="0 0 132 30" id="logo">
    <g clip-path="url(#clip0)">
      <path d="M28.892.031l-.026.007-.007.002L.62 8.804a.88.88 0 00-.003 1.68l10.89 3.418-2.058 5.518a.88.88 0 001.132 1.131l5.518-2.056 3.419 10.89a.88.88 0 001.679-.003L29.96 1.14l.002-.007.007-.025A.879.879 0 0028.892.03zM3.83 9.65l20.756-6.441-12.103 9.158L3.83 9.649zm7.938 8.582l1.619-4.344 11.2-8.474-8.476 11.2-4.343 1.618zm8.582 7.938l-2.717-8.653 9.158-12.103L20.35 26.17z" fill="#0F1138"></path>
      <path d="M6.987 18.038a.88.88 0 00-1.243 0L.467 23.316a.88.88 0 001.244 1.243l5.276-5.276a.88.88 0 000-1.244zm4.974 4.974a.88.88 0 00-1.243 0L5.44 28.29a.88.88 0 001.244 1.243l5.276-5.276a.88.88 0 000-1.244zm-4.245-.728a.88.88 0 00-1.244 0L.258 28.5A.88.88 0 001.5 29.742l6.215-6.214a.88.88 0 000-1.244z" fill="#1A75E8"></path>
    </g>
    <path d="M47.86 16.352h-4.5V21h-2.344V9.625h7.406v1.898h-5.063v2.938h4.5v1.89zM52.016 21H49.75v-8.453h2.266V21zm-2.399-10.64c0-.34.112-.618.336-.837.23-.218.54-.328.93-.328.385 0 .692.11.922.328.229.22.343.498.343.836 0 .344-.117.625-.351.844-.23.219-.534.328-.914.328s-.688-.11-.922-.328c-.23-.219-.344-.5-.344-.844zm6.343 2.187l.071.976c.604-.755 1.414-1.132 2.43-1.132.896 0 1.562.263 2 .789.437.526.661 1.312.672 2.36V21h-2.258v-5.406c0-.48-.104-.826-.313-1.04-.208-.218-.554-.327-1.039-.327-.635 0-1.112.27-1.43.812V21h-2.257v-8.453h2.125zm6.54 4.163c0-1.317.294-2.366.883-3.148.594-.78 1.404-1.171 2.43-1.171.822 0 1.502.307 2.039.921V9h2.265v12h-2.039l-.11-.898c-.562.703-1.286 1.054-2.171 1.054-.995 0-1.794-.39-2.399-1.172-.599-.786-.898-1.877-.898-3.273zm2.258.165c0 .792.138 1.398.414 1.82.276.422.677.633 1.203.633.698 0 1.19-.294 1.477-.883V15.11c-.282-.588-.769-.882-1.461-.882-1.089 0-1.633.882-1.633 2.648zm11.18-2.125l2.367-5.125h2.562l-3.734 7.25V21H74.75v-4.125l-3.734-7.25h2.57l2.352 5.125zm4.952 1.945c0-.838.162-1.586.485-2.242a3.554 3.554 0 011.39-1.523c.61-.36 1.316-.54 2.118-.54 1.14 0 2.07.35 2.789 1.047.724.698 1.127 1.646 1.21 2.844l.016.578c0 1.297-.361 2.339-1.085 3.125-.725.782-1.696 1.172-2.915 1.172-1.218 0-2.192-.39-2.921-1.172-.724-.78-1.086-1.843-1.086-3.187v-.102zm2.258.164c0 .802.151 1.417.454 1.844.302.422.734.633 1.296.633.547 0 .974-.208 1.282-.625.307-.422.46-1.094.46-2.016 0-.786-.153-1.396-.46-1.828-.308-.432-.74-.648-1.297-.648-.552 0-.98.216-1.281.648-.303.427-.454 1.091-.454 1.992zm12.204 3.281c-.558.678-1.329 1.016-2.313 1.016-.906 0-1.599-.26-2.078-.781-.474-.52-.716-1.284-.727-2.29v-5.538h2.258v5.46c0 .881.401 1.321 1.203 1.321.766 0 1.292-.265 1.578-.797v-5.984h2.266V21h-2.125l-.062-.86zm8.64-5.476a6.122 6.122 0 00-.812-.062c-.854 0-1.414.289-1.68.867V21h-2.258v-8.453h2.133l.063 1.008c.453-.776 1.08-1.164 1.882-1.164.25 0 .485.034.703.101l-.031 2.172z" fill="#0F1138"></path>
    <path d="M110.602 9.625h2.343V17.5c0 .724-.161 1.365-.484 1.922a3.241 3.241 0 01-1.352 1.281c-.583.302-1.242.453-1.976.453-1.203 0-2.141-.304-2.813-.914-.672-.614-1.008-1.482-1.008-2.601h2.36c0 .557.117.968.351 1.234.235.266.605.398 1.11.398.448 0 .805-.153 1.07-.46.266-.308.399-.745.399-1.313V9.625zm3.851 7.07c0-.838.162-1.586.485-2.242a3.548 3.548 0 011.39-1.523c.61-.36 1.315-.54 2.117-.54 1.141 0 2.071.35 2.789 1.047.724.698 1.128 1.646 1.211 2.844l.016.578c0 1.297-.362 2.339-1.086 3.125-.724.782-1.695 1.172-2.914 1.172s-2.193-.39-2.922-1.172c-.724-.78-1.086-1.843-1.086-3.187v-.102zm2.258.164c0 .802.151 1.417.453 1.844.302.422.734.633 1.297.633.547 0 .974-.208 1.281-.625.307-.422.461-1.094.461-2.016 0-.786-.154-1.396-.461-1.828-.307-.432-.739-.648-1.297-.648-.552 0-.979.216-1.281.648-.302.427-.453 1.091-.453 1.992zm14.758-.007c0 1.354-.289 2.411-.867 3.171-.579.756-1.386 1.133-2.422 1.133-.917 0-1.649-.351-2.196-1.054l-.101.898h-2.031V9h2.257v4.305c.521-.61 1.206-.914 2.055-.914 1.031 0 1.839.38 2.422 1.14.588.755.883 1.82.883 3.196v.125zm-2.258-.165c0-.854-.135-1.476-.406-1.867-.271-.396-.675-.593-1.211-.593-.719 0-1.214.294-1.485.882v3.336c.276.594.776.89 1.5.89.73 0 1.209-.358 1.438-1.077.109-.344.164-.867.164-1.57z" fill="#1A75E8"></path>
    <defs>
      <clipPath id="clip0">
        <path fill="#fff" d="M0 0h30v30H0z"></path>
      </clipPath>
    </defs>
  </symbol>

  <symbol xmlns="http://www.w3.org/2000/svg" viewBox="0 0 15 15" id="search">
    <path d="M14.825 13.942l-3.728-3.728a6.255 6.255 0 10-.883.883l3.728 3.728a.624.624 0 00.883-.883zm-8.56-2.681a4.996 4.996 0 114.996-4.996 5.002 5.002 0 01-4.996 4.996z"></path>
  </symbol>

  <symbol xmlns="http://www.w3.org/2000/svg" viewBox="0 0 24 24" id="camera">
    <g clip-path="url(#clip0)">
      <path d="M22.9 8.955a1.987 1.987 0 00-2.092.184L18.975 10.5A5.007 5.007 0 0014 6h-.085L9.793 1.879A2.976 2.976 0 007.672 1H1a1 1 0 000 2h6.672c.265 0 .52.106.707.293L11.086 6H5a5.006 5.006 0 00-5 5v8a5.006 5.006 0 005 5h9a5.007 5.007 0 004.975-4.5l1.83 1.364a2 2 0 003.2-1.6v-8.521A1.988 1.988 0 0022.9 8.955zM17 19a3 3 0 01-3 3H5a3 3 0 01-3-3v-8a3 3 0 013-3h9a3 3 0 013 3v8zm5 .257l-3-2.236v-4.042l3-2.236v8.514z"></path>
    </g>
    <defs>
      <clipPath id="clip0">
        <path d="M0 0h24v24H0z"></path>
      </clipPath>
    </defs>
  </symbol>

  <symbol xmlns="http://www.w3.org/2000/svg" viewBox="0 0 24 24" id="edit">
    <g clip-path="url(#clip0)">
      <path d="M18.656.93L6.464 13.122A4.967 4.967 0 005 16.657V18a1 1 0 001 1h1.343a4.965 4.965 0 003.535-1.464L23.07 5.344a3.125 3.125 0 000-4.414 3.194 3.194 0 00-4.414 0zm3 3L9.464 16.122A3.02 3.02 0 017.343 17H7v-.343a3.02 3.02 0 01.878-2.121L20.07 2.344a1.148 1.148 0 011.586 0 1.123 1.123 0 010 1.586z"></path>
      <path d="M23 8.979a1 1 0 00-1 1V15h-4a3 3 0 00-3 3v4H5a3 3 0 01-3-3V5a3 3 0 013-3h9.042a1 1 0 100-2H5a5.006 5.006 0 00-5 5v14a5.006 5.006 0 005 5h11.343a4.967 4.967 0 003.536-1.464l2.656-2.658A4.969 4.969 0 0024 16.343V9.979a1 1 0 00-1-1zm-4.535 12.143a2.97 2.97 0 01-1.465.8V18a1 1 0 011-1h3.925a3.016 3.016 0 01-.8 1.464l-2.66 2.658z"></path>
    </g>
    <defs>
      <clipPath id="clip0">
        <path d="M0 0h24v24H0z"></path>
      </clipPath>
    </defs>
  </symbol>

  <symbol xmlns="http://www.w3.org/2000/svg" viewBox="0 0 24 25" id="fingerprint">
    <path d="M6.465 22.285a1 1 0 01-.515-1.857C9.493 18.3 9.493 13.73 9.493 11a3 3 0 116 0 1 1 0 01-2 0 1 1 0 00-2 0c0 2.947 0 8.434-4.514 11.143a1.001 1.001 0 01-.514.142zm4.963 1.421c2.282-2.3 3.615-5.534 3.961-9.62A1.001 1.001 0 0014.48 13a.983.983 0 00-1.082.911c-.31 3.657-1.419 6.4-3.388 8.381a1 1 0 101.42 1.41v.004zm5.2-.186a17.803 17.803 0 001.508-3.18 1 1 0 00-1.88-.679 15.904 15.904 0 01-1.339 2.821.998.998 0 00.337 1.375 1 1 0 001.374-.337zm2.365-6.329a31.47 31.47 0 00.5-6.19A7 7 0 007.28 6.332a1 1 0 101.49 1.334A5 5 0 0117.492 11a29.695 29.695 0 01-.462 5.81 1 1 0 001.962.381zm-11.5-6.19c0-.28.023-.559.07-.834a1 1 0 10-1.97-.334 6.97 6.97 0 00-.1 1.167c0 4.645-1.346 7-4 7a1 1 0 100 2c3.87 0 6-3.2 6-9zm13.7 12.413A29.762 29.762 0 0023.493 11a10.865 10.865 0 00-1.1-4.794 1.002 1.002 0 00-1.8.875 8.9 8.9 0 01.9 3.92 27.912 27.912 0 01-2.119 11.585 1 1 0 001.82.828zM3.493 14v-3a9.01 9.01 0 019-9 8.911 8.911 0 015.4 1.8 1 1 0 101.2-1.6 10.9 10.9 0 00-6.6-2.2 11.013 11.013 0 00-11 11v3a1 1 0 002 0z"></path>
  </symbol>

  <symbol xmlns="http://www.w3.org/2000/svg" viewBox="0 0 24 24" id="school">
    <g clip-path="url(#clip0)">
      <path d="M19 6h-4.679A3.95 3.95 0 0013 5.388V5l3.53-1.652a1 1 0 000-1.7l-3.2-1.5A1.637 1.637 0 0011 1.636v3.752c-.474.12-.922.328-1.32.612H5a5.006 5.006 0 00-5 5v10a3 3 0 003 3h18a3 3 0 003-3V11a5.006 5.006 0 00-5-5zm2.816 4h-2.159a3.017 3.017 0 01-2.121-.879L16.414 8H19a3 3 0 012.816 2zM5 8h2.586L6.464 9.121A3.017 3.017 0 014.343 10H2.184A3 3 0 015 8zm8 14h-2v-3a1 1 0 012 0v3zm8 0h-6v-3a3 3 0 00-6 0v3H3a1 1 0 01-1-1v-9h2.343a4.968 4.968 0 003.535-1.465l2.708-2.707a2 2 0 012.828 0l2.708 2.707A4.967 4.967 0 0019.657 12H22v9a1 1 0 01-1 1zM7 15a1 1 0 01-1 1H5a1 1 0 010-2h1a1 1 0 011 1zm0 4a1 1 0 01-1 1H5a1 1 0 010-2h1a1 1 0 011 1zm13-4a1 1 0 01-1 1h-1a1 1 0 010-2h1a1 1 0 011 1zm0 4a1 1 0 01-1 1h-1a1 1 0 010-2h1a1 1 0 011 1zm-6-7a2 2 0 11-4 0 2 2 0 014 0z"></path>
    </g>
    <defs>
      <clipPath id="clip0">
        <path d="M0 0h24v24H0z"></path>
      </clipPath>
    </defs>
  </symbol>

  <symbol xmlns="http://www.w3.org/2000/svg" viewBox="0 0 28 24" id="browser">
    <path d="M21.636 0H6.364A5.461 5.461 0 00.909 5.455v13.09A5.461 5.461 0 006.364 24h15.272a5.461 5.461 0 005.455-5.454V5.455A5.461 5.461 0 0021.636 0zM6.364 2.182h15.272a3.273 3.273 0 013.273 3.273v1.09H3.091v-1.09a3.273 3.273 0 013.273-3.273zm15.272 19.636H6.364a3.273 3.273 0 01-3.273-3.273V8.728h21.818v9.819a3.272 3.272 0 01-3.273 3.272zm0-8.727a1.091 1.091 0 01-1.09 1.09H7.455a1.09 1.09 0 110-2.181h13.09a1.09 1.09 0 011.091 1.09zm-4.363 4.364a1.09 1.09 0 01-1.091 1.09H7.455a1.09 1.09 0 010-2.181h8.727a1.091 1.091 0 011.09 1.09zM4.182 4.364a1.09 1.09 0 112.182 0 1.09 1.09 0 01-2.182 0zm3.273 0a1.09 1.09 0 112.181 0 1.09 1.09 0 01-2.181 0zm3.272 0a1.091 1.091 0 112.183 0 1.091 1.091 0 01-2.183 0z"></path>
  </symbol>

  <symbol xmlns="http://www.w3.org/2000/svg" viewBox="0 0 24 24" id="brush">
    <path d="M19 0H5a5.006 5.006 0 00-5 5v5a7.009 7.009 0 007 7h2v4a3 3 0 006 0v-4h2a7.009 7.009 0 007-7V5a5.006 5.006 0 00-5-5zM2 5a3 3 0 013-3h5v1a1 1 0 002 0V2h2v3a1 1 0 002 0V2h2v5a1 1 0 002 0V2.184A3 3 0 0122 5v5H2V5zm15 10h-3a1 1 0 00-1 1v5a1 1 0 01-2 0v-5a1 1 0 00-1-1H7a5 5 0 01-4.576-3h19.152A5 5 0 0117 15z"></path>
  </symbol>

   <symbol xmlns="http://www.w3.org/2000/svg" viewBox="0 0 15 15" id="envelope">
    <path d="M11.875 0.625H3.125C2.2965 0.625992 1.50222 0.955551 0.916387 1.54139C0.330551 2.12722 0.000992411 2.9215 0 3.75L0 11.25C0.000992411 12.0785 0.330551 12.8728 0.916387 13.4586C1.50222 14.0444 2.2965 14.374 3.125 14.375H11.875C12.7035 14.374 13.4978 14.0444 14.0836 13.4586C14.6694 12.8728 14.999 12.0785 15 11.25V3.75C14.999 2.9215 14.6694 2.12722 14.0836 1.54139C13.4978 0.955551 12.7035 0.625992 11.875 0.625ZM3.125 1.875H11.875C12.2492 1.87574 12.6147 1.98845 12.9243 2.19863C13.234 2.40881 13.4737 2.70684 13.6125 3.05438L8.82625 7.84125C8.47402 8.19207 7.99713 8.38904 7.5 8.38904C7.00287 8.38904 6.52598 8.19207 6.17375 7.84125L1.3875 3.05438C1.52634 2.70684 1.76601 2.40881 2.07565 2.19863C2.3853 1.98845 2.75076 1.87574 3.125 1.875ZM11.875 13.125H3.125C2.62772 13.125 2.15081 12.9275 1.79917 12.5758C1.44754 12.2242 1.25 11.7473 1.25 11.25V4.6875L5.29 8.725C5.87664 9.31016 6.67141 9.63877 7.5 9.63877C8.32859 9.63877 9.12336 9.31016 9.71 8.725L13.75 4.6875V11.25C13.75 11.7473 13.5525 12.2242 13.2008 12.5758C12.8492 12.9275 12.3723 13.125 11.875 13.125Z" fill="white"/>
  </symbol>

  <symbol xmlns="http://www.w3.org/2000/svg" viewBox="0 0 24 16" id="menu-burger">
    <path d="M23 7H1C0.447715 7 0 7.44772 0 8C0 8.55228 0.447715 9 1 9H23C23.5523 9 24 8.55228 24 8C24 7.44772 23.5523 7 23 7Z" fill="#111238"/>
    <path d="M23 0H1C0.447715 0 0 0.447715 0 1C0 1.55228 0.447715 2 1 2H23C23.5523 2 24 1.55228 24 1C24 0.447715 23.5523 0 23 0Z" fill="#111238"/>
    <path d="M23 14H1C0.447715 14 0 14.4477 0 15C0 15.5523 0.447715 16 1 16H23C23.5523 16 24 15.5523 24 15C24 14.4477 23.5523 14 23 14Z" fill="#111238"/>
  </symbol>

  <symbol xmlns="http://www.w3.org/2000/svg" viewBox="0 0 329.26933 329" id="close">
    <path d="m194.800781 164.769531 128.210938-128.214843c8.34375-8.339844 8.34375-21.824219 0-30.164063-8.339844-8.339844-21.824219-8.339844-30.164063 0l-128.214844 128.214844-128.210937-128.214844c-8.34375-8.339844-21.824219-8.339844-30.164063 0-8.34375 8.339844-8.34375 21.824219 0 30.164063l128.210938 128.214843-128.210938 128.214844c-8.34375 8.339844-8.34375 21.824219 0 30.164063 4.15625 4.160156 9.621094 6.25 15.082032 6.25 5.460937 0 10.921875-2.089844 15.082031-6.25l128.210937-128.214844 128.214844 128.214844c4.160156 4.160156 9.621094 6.25 15.082032 6.25 5.460937 0 10.921874-2.089844 15.082031-6.25 8.34375-8.339844 8.34375-21.824219 0-30.164063zm0 0"/>
  </symbol>

</svg>